<?xml version="1.0" encoding="utf-8"?>
<!-- Generator: Adobe Illustrator 16.0.0, SVG Export Plug-In . SVG Version: 6.00 Build 0)  -->
<!DOCTYPE svg PUBLIC "-//W3C//DTD SVG 1.1//EN" "http://www.w3.org/Graphics/SVG/1.1/DTD/svg11.dtd">
<svg version="1.1" xmlns="http://www.w3.org/2000/svg" xmlns:xlink="http://www.w3.org/1999/xlink" x="0px" y="0px"
	 width="239.041px" height="237.671px" viewBox="0 0 239.041 237.671" enable-background="new 0 0 239.041 237.671"
	 xml:space="preserve">
<g id="Layer_2" display="none">
	<rect x="-44.408" y="-80.49" display="inline" width="310.667" height="387.333"/>
</g>
<g id="Layer_1">
	<g>
		<rect x="45.607" y="195.635" fill="none" stroke="#FFFFFF" stroke-width="2" stroke-miterlimit="10" width="6" height="23.301"/>
		<path fill="none" stroke="#FFFFFF" stroke-width="5" stroke-miterlimit="10" d="M188.501,194.983V222.6c0,6.627-5.373,12-12,12
			H51.834c-6.627,0-12-5.373-12-12v-28.117"/>
		<path fill="none" stroke="#FFFFFF" stroke-width="5" stroke-miterlimit="10" d="M51.834,163.932"/>
		<path fill="none" stroke="#FFFFFF" stroke-width="5" stroke-miterlimit="10" d="M200.774,4.467
			c-24.666-0.008-107.211-0.016-126,0.018C66.314,4.5,55.072,7.379,40.406,20.181C19.894,38.086,22.443,68.603,22.443,68.603
			v127.032h186.163l0.045-89.583l2.096-0.503V12.603C210.747,12.603,204.989,4.469,200.774,4.467z"/>
		<path fill="none" stroke="#FFFFFF" stroke-width="2" stroke-miterlimit="10" d="M167.606,161.186c0,4.004-3.246,7.25-7.25,7.25
			h-85c-4.004,0-7.25-3.246-7.25-7.25l0,0c0-4.004,3.246-7.25,7.25-7.25h85C164.36,153.936,167.606,157.182,167.606,161.186
			L167.606,161.186z"/>
		<path fill="none" stroke="#FFFFFF" stroke-width="2" stroke-miterlimit="10" d="M199.167,195.631v-84.294
			c0,0-0.582-6.669,9.359-7.55"/>
		<polyline fill="none" stroke="#FFFFFF" stroke-width="2" stroke-miterlimit="10" points="184.167,32.732 184.167,4.46 
			180.501,4.46 180.501,32.226 		"/>
		<polyline fill="none" stroke="#FFFFFF" stroke-width="2" stroke-miterlimit="10" points="180.501,135.733 180.501,195.631 
			184.167,195.631 184.167,135.733 		"/>
		<polyline fill="none" stroke="#FFFFFF" stroke-width="2" stroke-miterlimit="10" points="51.667,135.733 51.667,195.631 
			48,195.631 48,135.733 		"/>
		<polyline fill="none" stroke="#FFFFFF" stroke-width="2" stroke-miterlimit="10" points="48,49.732 48,16.668 51.667,13.151 
			51.667,45.232 		"/>
		<path fill="none" stroke="#FFFFFF" stroke-width="3" stroke-miterlimit="10" d="M191.604,136.235v-95.66
			c0,0-4.617-8.898-7.996-8.9c-19.775-0.009-85.955,0.05-101.018,0.02C68.58,31.667,59.135,35.629,52.08,44
			c-13.685,16.235-11.445,57.835-11.445,57.835v34.4H191.604z"/>
		<g>
			<g>
				
					<rect x="51.607" y="195.631" fill="none" stroke="#FFFFFF" stroke-width="2" stroke-miterlimit="10" width="8" height="30.805"/>
				
					<rect x="59.607" y="195.631" fill="none" stroke="#FFFFFF" stroke-width="2" stroke-miterlimit="10" width="8" height="30.805"/>
				<g>
					
						<rect x="67.607" y="195.631" fill="none" stroke="#FFFFFF" stroke-width="2" stroke-miterlimit="10" width="8" height="30.805"/>
					
						<rect x="75.607" y="195.631" fill="none" stroke="#FFFFFF" stroke-width="2" stroke-miterlimit="10" width="8" height="30.805"/>
				</g>
			</g>
			<g>
				
					<rect x="83.607" y="195.631" fill="none" stroke="#FFFFFF" stroke-width="2" stroke-miterlimit="10" width="8" height="30.805"/>
				
					<rect x="91.607" y="195.631" fill="none" stroke="#FFFFFF" stroke-width="2" stroke-miterlimit="10" width="8" height="30.805"/>
				<g>
					
						<rect x="99.607" y="195.631" fill="none" stroke="#FFFFFF" stroke-width="2" stroke-miterlimit="10" width="8" height="30.805"/>
					
						<rect x="107.607" y="195.631" fill="none" stroke="#FFFFFF" stroke-width="2" stroke-miterlimit="10" width="8" height="30.805"/>
				</g>
			</g>
		</g>
		<g>
			
				<rect x="115.606" y="195.631" fill="none" stroke="#FFFFFF" stroke-width="2" stroke-miterlimit="10" width="8" height="30.805"/>
			
				<rect x="123.606" y="195.631" fill="none" stroke="#FFFFFF" stroke-width="2" stroke-miterlimit="10" width="8" height="30.805"/>
			<g>
				
					<rect x="131.606" y="195.631" fill="none" stroke="#FFFFFF" stroke-width="2" stroke-miterlimit="10" width="8" height="30.805"/>
				
					<rect x="139.606" y="195.631" fill="none" stroke="#FFFFFF" stroke-width="2" stroke-miterlimit="10" width="8" height="30.805"/>
			</g>
		</g>
		<g>
			
				<rect x="147.606" y="195.631" fill="none" stroke="#FFFFFF" stroke-width="2" stroke-miterlimit="10" width="8" height="30.805"/>
			
				<rect x="155.606" y="195.631" fill="none" stroke="#FFFFFF" stroke-width="2" stroke-miterlimit="10" width="8" height="30.805"/>
			<g>
				
					<rect x="163.606" y="195.631" fill="none" stroke="#FFFFFF" stroke-width="2" stroke-miterlimit="10" width="8" height="30.805"/>
				
					<rect x="171.606" y="195.631" fill="none" stroke="#FFFFFF" stroke-width="2" stroke-miterlimit="10" width="8" height="30.805"/>
			</g>
		</g>
		<path fill="#FFFFFF" stroke="#FFFFFF" stroke-width="5" stroke-miterlimit="10" d="M182.501,4.46"/>
		<line fill="none" stroke="#FFFFFF" stroke-width="2" stroke-miterlimit="10" x1="180.579" y1="7.326" x2="184.247" y2="7.326"/>
		<g>
			<g>
				<path fill="none" stroke="#FFFFFF" stroke-width="2" stroke-miterlimit="10" d="M211.536,31.667h-7.123
					c-2.025,0-3.666-1.642-3.666-3.667l0,0c0-2.025,1.641-3.667,3.666-3.667h7.004L211.536,31.667z"/>
			</g>
			
				<line fill="none" stroke="#FFFFFF" stroke-width="2" stroke-miterlimit="10" x1="207.526" y1="24.333" x2="207.526" y2="31.667"/>
		</g>
		<g>
			<g>
				<path fill="none" stroke="#FFFFFF" stroke-width="2" stroke-miterlimit="10" d="M211.536,44h-7.123
					c-2.025,0-3.666-1.642-3.666-3.667l0,0c0-2.025,1.641-3.667,3.666-3.667h7.004L211.536,44z"/>
			</g>
			<line fill="none" stroke="#FFFFFF" stroke-width="2" stroke-miterlimit="10" x1="207.526" y1="36.667" x2="207.526" y2="44"/>
		</g>
		<polygon fill="none" stroke="#FFFFFF" stroke-width="2" stroke-miterlimit="10" points="115.606,187.604 107.607,176.604 
			123.606,176.604 		"/>
		<line fill="none" stroke="#FFFFFF" stroke-width="2" stroke-miterlimit="10" x1="48.045" y1="18.501" x2="51.667" y2="15.857"/>
		<line fill="none" stroke="#FFFFFF" stroke-width="2" stroke-miterlimit="10" x1="75.607" y1="32.225" x2="75.607" y2="134.788"/>
		
			<text transform="matrix(1.0709 0 0 1 49.7798 126.0835)" stroke="#FFFFFF" stroke-miterlimit="10" font-family="'KozGoPr6N-Regular-90ms-RKSJ-H'" font-size="16.3754">問</text>
	</g>
</g>
</svg>
